<?xml version="1.0" encoding="UTF-8" standalone="no"?>
<!-- Generator: Adobe Illustrator 16.0.0, SVG Export Plug-In . SVG Version: 6.00 Build 0)  -->

<svg
   xmlns:dc="http://purl.org/dc/elements/1.1/"
   xmlns:cc="http://creativecommons.org/ns#"
   xmlns:rdf="http://www.w3.org/1999/02/22-rdf-syntax-ns#"
   xmlns:svg="http://www.w3.org/2000/svg"
   xmlns="http://www.w3.org/2000/svg"
   xmlns:sodipodi="http://sodipodi.sourceforge.net/DTD/sodipodi-0.dtd"
   xmlns:inkscape="http://www.inkscape.org/namespaces/inkscape"
   version="1.1"
   id="Capa_1"
   x="0px"
   y="0px"
   width="512px"
   height="512px"
   viewBox="0 0 97.75 97.75"
   style="enable-background:new 0 0 97.75 97.75;"
   xml:space="preserve"
   inkscape:version="0.48.4 r9939"
   sodipodi:docname="linkedinColored.svg"><metadata
     id="metadata41"><rdf:RDF><cc:Work
         rdf:about=""><dc:format>image/svg+xml</dc:format><dc:type
           rdf:resource="http://purl.org/dc/dcmitype/StillImage" /><dc:title></dc:title></cc:Work></rdf:RDF></metadata><defs
     id="defs39" /><sodipodi:namedview
     pagecolor="#ffffff"
     bordercolor="#666666"
     borderopacity="1"
     objecttolerance="10"
     gridtolerance="10"
     guidetolerance="10"
     inkscape:pageopacity="0"
     inkscape:pageshadow="2"
     inkscape:window-width="1881"
     inkscape:window-height="1056"
     id="namedview37"
     showgrid="false"
     inkscape:zoom="0.65186406"
     inkscape:cx="-214.91857"
     inkscape:cy="262.33121"
     inkscape:window-x="39"
     inkscape:window-y="24"
     inkscape:window-maximized="1"
     inkscape:current-layer="Capa_1" /><g
     id="g3"
     style="fill:#0274b3;fill-opacity:1"><path
       d="M48.875,0C21.882,0,0,21.882,0,48.875S21.882,97.75,48.875,97.75S97.75,75.868,97.75,48.875S75.868,0,48.875,0z    M30.562,81.966h-13.74V37.758h13.74V81.966z M23.695,31.715c-4.404,0-7.969-3.57-7.969-7.968c0.001-4.394,3.565-7.964,7.969-7.964   c4.392,0,7.962,3.57,7.962,7.964C31.657,28.146,28.086,31.715,23.695,31.715z M82.023,81.966H68.294V60.467   c0-5.127-0.095-11.721-7.142-11.721c-7.146,0-8.245,5.584-8.245,11.35v21.869H39.179V37.758h13.178v6.041h0.185   c1.835-3.476,6.315-7.14,13-7.14c13.913,0,16.481,9.156,16.481,21.059V81.966z"
       fill="#000000"
       id="path5"
       style="fill:#0274b3;fill-opacity:1" /></g><g
     id="g7" /><g
     id="g9" /><g
     id="g11" /><g
     id="g13" /><g
     id="g15" /><g
     id="g17" /><g
     id="g19" /><g
     id="g21" /><g
     id="g23" /><g
     id="g25" /><g
     id="g27" /><g
     id="g29" /><g
     id="g31" /><g
     id="g33" /><g
     id="g35" /></svg>